<svg id="Layer_1" data-name="Layer 1" xmlns="http://www.w3.org/2000/svg" viewBox="0 0 198.26 68.22"><defs><style>.cls-1{fill:#005398;}.cls-2{fill:none;}.cls-3{fill:#f7a632;}</style></defs><title>logo</title><path class="cls-1" d="M68.43,14.1V75a1.75,1.75,0,0,1-1.75,1.75H60a4.38,4.38,0,0,1-4.39-4.39V32.3L40,49.67,31,39.57l-6.5-7.25V72.4a4.36,4.36,0,0,1-4.36,4.37H13.52A1.75,1.75,0,0,1,11.77,75V14.07a5.3,5.3,0,0,1,5.3-5.3h2.1a5.33,5.33,0,0,1,4.4,2.33L40,29.46,56.65,10.94l.45-.5a4.68,4.68,0,0,1,.38-.39c.09-.07.17-.15.26-.21L58,9.68a5.15,5.15,0,0,1,2.35-.87,2.17,2.17,0,0,1,.36,0,1.23,1.23,0,0,1,.27,0H63.1A5.33,5.33,0,0,1,68.43,14.1Z" transform="translate(-11.77 -8.55)"/><path class="cls-1" d="M57.48,10.05a4.68,4.68,0,0,0-.38.39l-.45.5A5,5,0,0,1,57.48,10.05Z" transform="translate(-11.77 -8.55)"/><path class="cls-1" d="M60.31,8.81A5.15,5.15,0,0,0,58,9.68,4.58,4.58,0,0,1,60.31,8.81Z" transform="translate(-11.77 -8.55)"/><path class="cls-1" d="M99.15,8.88H87.34C78.7,8.88,71.69,17,71.69,27V58.39c0,10,7,18.13,15.65,18.13H99.15c8.64,0,15.65-8.12,15.65-18.13V27C114.8,17,107.79,8.88,99.15,8.88Zm3.76,50.43c0,4.2-2.93,7.6-6.56,7.6H90.13c-3.62,0-6.55-3.4-6.55-7.6V26.08c0-4.19,2.93-7.59,6.55-7.59h6.22c3.63,0,6.56,3.4,6.56,7.59Z" transform="translate(-11.77 -8.55)"/><polygon class="cls-2" points="178.88 43.29 170.47 43.29 174.74 29.16 178.88 43.29"/><path class="cls-2" d="M198,76.48H174.73a4.2,4.2,0,0,0,.29-.71l5.2-17.24H192.6l4.5,15.36C197.27,74.48,197.58,75.42,198,76.48Z" transform="translate(-11.77 -8.55)"/><path class="cls-1" d="M192.65,17.23l-.87-3A5.09,5.09,0,0,0,190.36,12a4.89,4.89,0,0,0-1.18-.55l-1.4-.42a5,5,0,0,0-6.3,3.38L180,19.21,164.13,71.74,163.74,73c-.14.47-.63,2.06-.9,3.45h11.89a4.2,4.2,0,0,0,.29-.71l5.2-17.24H192.6l4.5,15.36c.17.59.48,1.53.87,2.59H210ZM182.24,51.84l4.27-14.13,4.14,14.13Z" transform="translate(-11.77 -8.55)"/><polygon class="cls-3" points="128.21 52.63 121.46 41.01 103.5 67.88 117.91 67.92 128.21 52.63"/><path class="cls-1" d="M166.88,76.48H149c-.54-.77-1-1.54-1.39-2.2L135.33,53.13l-3.68-6.34L112.84,14.35l8.72-5a5.49,5.49,0,0,1,7.51,2l12.26,21.14,1.43,2.48,6.61,11.39,14.76,25.43Z" transform="translate(-11.77 -8.55)"/><path class="cls-3" d="M152.73,31.16h0c-.35-.18,4.75-18.38,4.75-18.38,1.46-2.14,5-2.27,8-.27h0c2.93,2,4.12,5.35,2.66,7.49C168.09,20,152.93,31.33,152.73,31.16Z" transform="translate(-11.77 -8.55)"/></svg>